<?xml version="1.0" standalone="no"?>
<!DOCTYPE svg PUBLIC "-//W3C//DTD SVG 20010904//EN"
 "http://www.w3.org/TR/2001/REC-SVG-20010904/DTD/svg10.dtd">
<svg version="1.0" xmlns="http://www.w3.org/2000/svg"
 width="1500.000000pt" height="1500.000000pt" viewBox="0 0 1500.000000 1500.000000"
 preserveAspectRatio="xMidYMid meet">
<style>.cls-1{fill:#84aff1;}.cls-2{fill:#3865ab;}.cls-3{fill:#f2cc0c;}</style>
<g transform="translate(0.000000,1500.000000) scale(0.100000,-0.100000)">
<path class="cls-3" d="M14580 14993 c-1188 -43 -2327 -248 -3435 -617 -2098 -699 -3956
-1953 -5414 -3655 -991 -1156 -1773 -2530 -2266 -3981 -354 -1041 -575 -2191
-625 -3255 -6 -127 -13 -267 -16 -312 l-6 -83 -66 -44 c-274 -183 -437 -508
-418 -836 3 -58 12 -134 21 -170 86 -358 361 -632 721 -716 108 -26 310 -26
418 0 362 84 638 360 722 722 26 108 26 310 0 418 -60 260 -221 479 -450 615
l-80 47 3 109 c4 213 29 557 62 850 265 2394 1290 4634 2934 6415 161 175 534
545 700 696 1775 1610 3982 2609 6350 2873 353 40 858 71 1148 71 l117 0 0
430 0 430 -172 -2 c-95 -1 -207 -3 -248 -5z"/>
<path class="cls-2" d="M14625 10779 c-1807 -98 -3472 -780 -4860 -1990 -166 -144 -547 -525
-694 -694 -861 -985 -1444 -2090 -1759 -3330 -118 -461 -208 -1060 -228 -1502
l-7 -153 -66 -39 c-216 -128 -378 -353 -437 -607 -26 -108 -26 -310 0 -418 84
-362 360 -638 722 -722 55 -13 118 -19 209 -19 91 0 154 6 209 19 362 84 638
360 722 722 26 108 26 310 0 418 -59 253 -225 484 -434 604 l-64 37 6 125 c18
377 92 877 191 1280 228 926 645 1805 1219 2570 398 530 903 1036 1426 1426
601 449 1261 799 1947 1034 673 230 1294 348 2023 382 l250 12 0 428 0 428
-112 -1 c-62 -1 -180 -6 -263 -10z"/>
<path class="cls-1" d="M14805 6533 c-382 -31 -644 -82 -960 -188 -1362 -454 -2345 -1669
-2510 -3100 -11 -97 -19 -133 -31 -140 -199 -124 -309 -233 -398 -396 -186
-341 -139 -785 113 -1072 196 -223 434 -332 726 -332 292 0 530 109 726 332
252 287 299 731 113 1072 -74 136 -188 259 -316 344 -90 58 -87 49 -62 211
129 825 631 1573 1343 2000 412 247 854 384 1334 412 l117 7 0 428 0 429 -77
-2 c-43 -1 -96 -3 -118 -5z"/>
</g>
</svg>
